<svg width="24" height="24" viewBox="0 0 24 24" fill="none" xmlns="http://www.w3.org/2000/svg">
<path fill-rule="evenodd" clip-rule="evenodd" d="M11.2071 20.2071C10.8166 20.5976 10.1834 20.5976 9.79289 20.2071L2.2929 12.7071C2.10536 12.5196 2 12.2652 2 12C2 11.7348 2.10536 11.4804 2.29289 11.2929L9.79289 3.79291C10.1834 3.40239 10.8166 3.40239 11.2071 3.79291C11.5976 4.18344 11.5976 4.8166 11.2071 5.20712L4.41422 12L11.2071 18.7929C11.5976 19.1834 11.5976 19.8166 11.2071 20.2071Z" fill="#101010"/>
<path fill-rule="evenodd" clip-rule="evenodd" d="M21.9999 12C21.9999 12.5523 21.5522 13 20.9999 13L3.00002 13C2.44774 13 2.00002 12.5523 2.00002 12C2.00002 11.4477 2.44774 11 3.00002 11L20.9999 11C21.5522 11 21.9999 11.4477 21.9999 12Z" fill="#101010"/>
</svg>
